HIERARCHY
ROOT Hips
{
	OFFSET 0.000000 95.729000 0.000000
	CHANNELS 6 Xposition Yposition Zposition Yrotation Xrotation Zrotation
	JOINT RightUpLeg
	{
		OFFSET -9.625000 -1.639000 0.000000
		CHANNELS 3 Yrotation Xrotation Zrotation
		JOINT RightLeg
		{
			OFFSET 0.000000 -41.481000 0.000000
			CHANNELS 3 Yrotation Xrotation Zrotation
			JOINT RightFoot
			{
				OFFSET 0.000000 -43.120000 0.000000
				CHANNELS 3 Yrotation Xrotation Zrotation
				End Site
				{
					OFFSET 0.000000 -7.850000 17.850000
				}
			}
		}
	}
	JOINT LeftUpLeg
	{
		OFFSET 9.625000 -1.639000 0.000000
		CHANNELS 3 Yrotation Xrotation Zrotation
		JOINT LeftLeg
		{
			OFFSET 0.000000 -43.120000 0.000000
			CHANNELS 3 Yrotation Xrotation Zrotation
			JOINT LeftFoot
			{
				OFFSET 0.000000 -43.120000 0.000000
				CHANNELS 3 Yrotation Xrotation Zrotation
				End Site
				{
					OFFSET 0.000000 -7.850000 17.850000
				}
			}
		}
	}
	JOINT Spine
	{
		OFFSET 0.000000 16.395000 0.000000
		CHANNELS 3 Yrotation Xrotation Zrotation
		JOINT Spine1
		{
			OFFSET 0.000000 10.023000 0.000000
			CHANNELS 3 Yrotation Xrotation Zrotation
			JOINT Spine2
			{
				OFFSET 0.000000 10.437000 0.000000
				CHANNELS 3 Yrotation Xrotation Zrotation
				JOINT Spine3
				{
					OFFSET 0.000000 10.023000 0.000000
					CHANNELS 3 Yrotation Xrotation Zrotation
					JOINT Neck
					{
						OFFSET 0.000000 10.713000 0.000000
						CHANNELS 3 Yrotation Xrotation Zrotation
						JOINT Head
						{
							OFFSET 0.000000 9.720000 0.000000
							CHANNELS 3 Yrotation Xrotation Zrotation
							End Site
							{
								OFFSET 0.000000 16.450000 0.000000
							}
						}
					}
					JOINT RightShoulder
					{
						OFFSET -3.275000 7.142000 0.000000
						CHANNELS 3 Yrotation Xrotation Zrotation
						JOINT RightArm
						{
							OFFSET -13.100000 0.000000 0.000000
							CHANNELS 3 Yrotation Xrotation Zrotation
							JOINT RightForeArm
							{
								OFFSET -27.250000 0.000000 0.000000
								CHANNELS 3 Yrotation Xrotation Zrotation
								JOINT RightHand
								{
									OFFSET -26.750000 0.000000 0.000000
									CHANNELS 3 Yrotation Xrotation Zrotation
									End Site
									{
										OFFSET -3.479000 0.532000 0.778000
									}
								}
							}
						}
					}
					JOINT LeftShoulder
					{
						OFFSET 3.275000 7.142000 0.000000
						CHANNELS 3 Yrotation Xrotation Zrotation
						JOINT LeftArm
						{
							OFFSET 13.100000 0.000000 0.000000
							CHANNELS 3 Yrotation Xrotation Zrotation
							JOINT LeftForeArm
							{
								OFFSET 27.250000 0.000000 0.000000
								CHANNELS 3 Yrotation Xrotation Zrotation
								JOINT LeftHand
								{
									OFFSET 26.750000 0.000000 0.000000
									CHANNELS 3 Yrotation Xrotation Zrotation
									End Site
									{
										OFFSET 3.479000 0.532000 0.778000
									}
								}
							}
						}
					}
				}
			}
		}
	}
}
MOTION
Frames: 23
Frame Time: 0.041667
76.85 58.21 -4.8 -131.66 6.73 10.1 2.53 -13.66 -2.3 -180.0 67.93 -180.0 43.54 -28.74 15.44 -51.3 -74.28 59.13 180.0 80.95 180.0 -11.43 -6.41 -11.75 7.32 5.07 -5.51 1.81 1.38 -1.43 2.9 2.45 -2.35 -2.41 0.06 0.41 -18.41 -0.15 1.39 -35.0 7.21 4.61 3.79 -1.57 1.14 31.36 -48.9 44.25 -4.54 44.72 -8.55 -16.45 0.15 -72.75 8.78 -2.73 -8.19 -25.08 -7.2 -56.44 -64.8 22.84 -8.82 7.55 -31.29 44.94
76.86 58.21 -4.79 -131.66 6.73 10.1 2.49 -13.66 -2.27 -180.0 67.94 -180.0 43.51 -28.72 15.42 -51.29 -74.28 59.11 180.0 80.96 180.0 -11.42 -6.41 -11.74 7.32 5.09 -5.5 1.81 1.38 -1.43 2.9 2.46 -2.35 -2.41 0.06 0.41 -18.38 -0.15 1.39 -35.01 7.17 4.62 3.78 -1.55 1.14 31.33 -48.89 44.3 -4.48 44.73 -8.54 -16.42 0.15 -72.74 8.78 -2.77 -8.21 -25.04 -7.18 -56.45 -64.79 22.84 -8.81 7.56 -31.33 44.94
76.86 58.22 -4.78 -131.67 6.75 10.1 2.47 -13.69 -2.25 180.0 67.93 -180.0 43.48 -28.7 15.42 -51.31 -74.3 59.13 -180.0 80.97 -180.0 -11.42 -6.41 -11.74 7.33 5.11 -5.49 1.81 1.39 -1.43 2.9 2.47 -2.34 -2.41 0.06 0.41 -18.36 -0.16 1.39 -35.01 7.14 4.63 3.76 -1.53 1.14 31.1 -48.77 44.57 -4.31 44.75 -8.62 -16.39 0.16 -72.71 8.75 -2.69 -8.2 -25.03 -7.27 -56.43 -64.77 22.84 -8.8 7.54 -31.33 44.94
76.86 58.23 -4.77 -131.69 6.77 10.11 2.45 -13.73 -2.23 180.0 67.93 180.0 43.45 -28.68 15.41 -51.29 -74.32 59.12 180.0 80.98 180.0 -11.41 -6.42 -11.74 7.34 5.12 -5.48 1.82 1.39 -1.43 2.91 2.47 -2.34 -2.41 0.05 0.41 -18.32 -0.16 1.39 -35.02 7.11 4.64 3.74 -1.51 1.13 31.1 -48.74 44.59 -4.24 44.76 -8.6 -16.35 0.18 -72.68 8.75 -2.69 -8.22 -25.0 -7.27 -56.44 -64.76 22.84 -8.79 7.54 -31.35 44.95
76.86 58.23 -4.76 -131.71 6.83 10.12 2.46 -13.8 -2.21 180.0 67.93 180.0 43.42 -28.67 15.39 -51.38 -74.36 59.23 -180.0 80.99 -180.0 -11.42 -6.43 -11.74 7.37 5.12 -5.49 1.82 1.39 -1.43 2.92 2.47 -2.34 -2.41 0.05 0.41 -18.31 -0.16 1.39 -35.02 7.07 4.66 3.71 -1.5 1.12 31.09 -48.7 44.62 -4.18 44.77 -8.58 -16.32 0.17 -72.69 8.73 -2.73 -8.24 -24.97 -7.24 -56.45 -64.75 22.84 -8.78 7.51 -31.36 44.94
76.86 58.24 -4.74 -131.73 6.86 10.12 2.44 -13.83 -2.19 180.0 67.93 180.0 43.4 -28.65 15.38 -51.39 -74.38 59.26 -180.0 81.0 -180.0 -11.42 -6.43 -11.73 7.37 5.13 -5.48 1.83 1.39 -1.43 2.92 2.48 -2.34 -2.41 0.05 0.41 -18.27 -0.17 1.39 -35.03 7.04 4.68 3.71 -1.48 1.11 31.1 -48.66 44.64 -4.13 44.78 -8.55 -16.3 0.16 -72.7 8.73 -2.77 -8.27 -24.93 -7.2 -56.46 -64.75 22.84 -8.76 7.52 -31.4 44.95
76.86 58.24 -4.73 -131.75 6.88 10.13 2.43 -13.87 -2.16 180.0 67.93 180.0 43.37 -28.63 15.38 -51.4 -74.39 59.28 180.0 81.01 180.0 -11.42 -6.43 -11.72 7.39 5.12 -5.49 1.83 1.39 -1.43 2.92 2.47 -2.34 -2.41 0.05 0.41 -18.23 -0.16 1.39 -35.04 7.06 4.67 3.7 -1.42 1.13 31.12 -48.63 44.63 -4.1 44.8 -8.51 -16.28 0.14 -72.7 8.73 -2.77 -8.27 -24.91 -7.16 -56.47 -64.74 22.84 -8.74 7.48 -31.39 44.95
76.87 58.25 -4.72 -131.77 6.91 10.13 2.42 -13.93 -2.14 -180.0 67.92 -180.0 43.34 -28.61 15.36 -51.41 -74.41 59.31 180.0 81.03 180.0 -11.42 -6.44 -11.72 7.4 5.11 -5.49 1.83 1.39 -1.43 2.93 2.47 -2.35 -2.41 0.05 0.41 -18.2 -0.16 1.39 -35.05 7.07 4.67 3.69 -1.35 1.14 31.15 -48.58 44.63 -4.08 44.8 -8.5 -16.25 0.13 -72.7 8.73 -2.77 -8.27 -24.87 -7.12 -56.49 -64.75 22.83 -8.73 7.48 -31.43 44.98
76.88 58.25 -4.71 -131.79 6.94 10.13 2.39 -13.98 -2.11 -180.0 67.92 -180.0 43.31 -28.58 15.34 -51.47 -74.42 59.39 -180.0 81.04 -180.0 -11.42 -6.43 -11.72 7.42 5.09 -5.5 1.84 1.38 -1.43 2.94 2.46 -2.35 -2.41 0.05 0.41 -18.17 -0.16 1.39 -35.06 7.09 4.67 3.69 -1.36 1.14 31.11 -48.47 44.72 -4.04 44.8 -8.47 -16.24 0.1 -72.69 8.69 -2.52 -8.2 -24.83 -7.34 -56.46 -64.75 22.82 -8.71 7.44 -31.42 44.98
76.9 58.25 -4.69 -131.83 6.96 10.13 2.37 -14.02 -2.09 -180.0 67.9 -180.0 43.28 -28.55 15.3 -51.47 -74.45 59.42 -180.0 81.05 -180.0 -11.41 -6.43 -11.71 7.44 5.08 -5.5 1.84 1.38 -1.43 2.95 2.46 -2.35 -2.41 0.06 0.41 -18.14 -0.16 1.38 -35.07 7.11 4.66 3.69 -1.36 1.14 31.03 -48.37 44.82 -3.99 44.79 -8.44 -16.22 0.08 -72.69 8.67 -2.45 -8.19 -24.78 -7.36 -56.46 -64.75 22.81 -8.69 7.45 -31.46 45.0
76.91 58.25 -4.68 -131.85 6.98 10.13 2.35 -14.07 -2.06 -180.0 67.89 -180.0 43.26 -28.51 15.28 -51.53 -74.46 59.5 180.0 81.06 180.0 -11.4 -6.42 -11.72 7.43 5.23 -5.44 1.84 1.42 -1.42 2.94 2.52 -2.33 -2.4 0.04 0.41 -18.07 -0.18 1.4 -35.08 6.9 4.75 3.69 -1.53 1.03 30.98 -48.33 44.88 -3.9 44.8 -8.4 -16.2 0.06 -72.69 8.66 -2.61 -8.32 -24.74 -7.39 -56.46 -64.76 22.8 -8.68 7.39 -31.45 45.0
76.92 58.25 -4.66 -131.88 7.01 10.13 2.33 -14.12 -2.04 -180.0 67.87 -180.0 43.23 -28.46 15.26 -51.59 -74.47 59.58 180.0 81.07 180.0 -11.38 -6.4 -11.73 7.45 5.26 -5.43 1.84 1.43 -1.42 2.95 2.54 -2.32 -2.4 0.04 0.41 -18.04 -0.18 1.4 -35.09 6.86 4.76 3.68 -1.52 1.01 30.9 -48.28 44.96 -3.8 44.81 -8.36 -16.19 0.03 -72.73 8.64 -2.6 -8.34 -24.69 -7.4 -56.47 -64.77 22.8 -8.65 7.37 -31.45 45.01
76.94 58.25 -4.64 -131.91 7.03 10.13 2.3 -14.18 -2.01 180.0 67.86 180.0 43.2 -28.42 15.23 -51.64 -74.49 59.65 -180.0 81.08 -180.0 -11.37 -6.39 -11.73 7.46 5.29 -5.41 1.85 1.43 -1.41 2.95 2.55 -2.31 -2.4 0.04 0.41 -18.0 -0.19 1.4 -35.1 6.81 4.78 3.64 -1.37 0.99 31.09 -48.46 44.76 -3.77 44.83 -8.26 -16.18 0.01 -72.76 8.62 -2.59 -8.37 -24.65 -7.42 -56.47 -64.77 22.8 -8.63 7.34 -31.47 45.02
76.95 58.25 -4.62 -131.95 7.06 10.14 2.29 -14.23 -1.98 -180.0 67.84 -180.0 43.17 -28.37 15.21 -51.7 -74.52 59.73 -180.0 81.08 -180.0 -11.35 -6.39 -11.72 7.48 5.32 -5.39 1.85 1.44 -1.41 2.96 2.56 -2.31 -2.4 0.03 0.41 -17.96 -0.19 1.4 -35.11 6.77 4.79 3.62 -1.36 0.96 31.17 -48.52 44.68 -3.74 44.85 -8.17 -16.17 -0.0 -72.8 8.61 -2.58 -8.39 -24.6 -7.43 -56.48 -64.8 22.8 -8.62 7.31 -31.48 45.04
76.97 58.24 -4.59 -131.97 7.08 10.13 2.25 -14.29 -1.94 -180.0 67.82 -180.0 43.12 -28.33 15.18 -51.79 -74.52 59.81 -180.0 81.1 -180.0 -11.36 -6.43 -11.71 7.49 5.35 -5.37 1.85 1.45 -1.4 2.97 2.58 -2.3 -2.4 0.03 0.41 -17.95 -0.2 1.41 -35.11 6.7 4.81 3.61 -1.34 0.92 31.1 -48.49 44.77 -3.61 44.89 -8.15 -16.17 -0.02 -72.87 8.6 -2.57 -8.41 -24.61 -7.52 -56.47 -64.72 22.79 -8.61 7.29 -31.5 45.05
76.98 58.24 -4.55 -132.01 7.11 10.14 2.22 -14.35 -1.9 -180.0 67.8 -180.0 43.06 -28.29 15.15 -51.84 -74.55 59.88 180.0 81.11 180.0 -11.36 -6.42 -11.7 7.51 5.39 -5.35 1.86 1.46 -1.4 2.97 2.59 -2.29 -2.4 0.02 0.41 -17.94 -0.21 1.41 -35.12 6.62 4.84 3.58 -1.33 0.89 31.03 -48.46 44.86 -3.47 44.91 -8.14 -16.16 -0.03 -72.95 8.6 -2.56 -8.44 -24.62 -7.6 -56.47 -64.66 22.79 -8.6 7.26 -31.52 45.06
77.0 58.24 -4.51 -132.04 7.12 10.14 2.18 -14.4 -1.85 180.0 67.76 180.0 42.95 -28.24 15.14 -51.85 -74.58 59.9 180.0 81.12 180.0 -11.35 -6.41 -11.69 7.52 5.44 -5.33 1.86 1.47 -1.39 2.98 2.62 -2.28 -2.4 0.02 0.41 -17.9 -0.21 1.41 -35.13 6.55 4.86 3.57 -1.31 0.86 30.63 -48.21 45.3 -3.1 44.94 -8.28 -16.16 -0.04 -73.02 8.61 -2.55 -8.47 -24.59 -7.63 -56.48 -64.67 22.79 -8.57 7.23 -31.53 45.07
77.02 58.24 -4.47 -132.08 7.13 10.15 2.16 -14.44 -1.82 -180.0 67.73 -180.0 42.9 -28.21 15.11 -51.87 -74.61 59.94 180.0 81.13 -180.0 -11.34 -6.4 -11.67 7.53 5.5 -5.3 1.87 1.49 -1.39 2.98 2.64 -2.27 -2.4 0.01 0.41 -17.85 -0.22 1.42 -35.14 6.47 4.88 3.54 -1.29 0.82 30.58 -48.16 45.34 -2.91 44.96 -8.27 -16.13 -0.06 -73.06 8.61 -2.55 -8.52 -24.57 -7.64 -56.48 -64.7 22.79 -8.56 7.22 -31.56 45.08
77.03 58.23 -4.43 -132.12 7.15 10.15 2.14 -14.5 -1.78 -180.0 67.71 -180.0 42.85 -28.16 15.09 -51.93 -74.64 60.03 180.0 81.14 180.0 -11.33 -6.4 -11.66 7.56 5.49 -5.3 1.87 1.49 -1.39 2.99 2.64 -2.27 -2.4 0.02 0.41 -17.75 -0.21 1.41 -35.17 6.52 4.87 3.51 -1.17 0.86 30.58 -48.12 45.36 -2.81 44.94 -8.34 -16.03 -0.0 -73.03 8.6 -2.46 -8.49 -24.53 -7.46 -56.52 -64.85 22.78 -8.43 7.19 -31.57 45.09
77.06 58.23 -4.38 -132.17 7.18 10.15 2.1 -14.56 -1.76 180.0 67.68 180.0 42.81 -28.12 15.05 -51.99 -74.68 60.12 180.0 81.16 180.0 -11.32 -6.39 -11.65 7.59 5.48 -5.31 1.88 1.48 -1.39 3.0 2.64 -2.28 -2.4 0.02 0.41 -17.71 -0.21 1.4 -35.18 6.54 4.85 3.48 -1.04 0.91 30.6 -48.07 45.36 -2.7 44.9 -8.42 -15.95 0.08 -73.03 8.61 -2.36 -8.46 -24.53 -7.46 -56.52 -64.87 22.77 -8.38 7.17 -31.6 45.1
77.08 58.23 -4.34 -132.2 7.21 10.14 2.06 -14.64 -1.71 180.0 67.64 180.0 42.77 -28.07 15.01 -52.11 -74.7 60.26 180.0 81.17 180.0 -11.31 -6.38 -11.63 7.61 5.46 -5.31 1.89 1.48 -1.39 3.01 2.63 -2.28 -2.4 0.02 0.41 -17.71 -0.21 1.4 -35.18 6.54 4.85 3.45 -0.91 0.95 30.59 -48.02 45.37 -2.5 44.92 -8.42 -15.93 0.15 -73.07 8.61 -2.27 -8.43 -24.53 -7.46 -56.53 -64.87 22.78 -8.34 7.13 -31.61 45.1
77.1 58.22 -4.3 -132.24 7.24 10.13 2.03 -14.72 -1.69 -180.0 67.59 -180.0 42.75 -28.02 14.97 -52.21 -74.74 60.38 180.0 81.18 180.0 -11.3 -6.37 -11.62 7.64 5.44 -5.31 1.89 1.48 -1.39 3.02 2.62 -2.28 -2.4 0.02 0.41 -17.71 -0.21 1.4 -35.18 6.54 4.85 3.42 -0.77 0.99 30.57 -47.94 45.4 -2.27 44.96 -8.4 -15.93 0.19 -73.1 8.62 -2.17 -8.4 -24.51 -7.46 -56.54 -64.89 22.79 -8.31 7.13 -31.67 45.1
77.12 58.22 -4.25 -132.28 7.27 10.12 2.01 -14.81 -1.66 -180.0 67.55 -180.0 42.71 -27.97 14.94 -52.31 -74.77 60.51 -180.0 81.2 -180.0 -11.3 -6.37 -11.61 7.66 5.43 -5.32 1.9 1.47 -1.39 3.04 2.62 -2.28 -2.39 0.02 0.4 -17.66 -0.2 1.39 -35.19 6.57 4.84 3.39 -0.62 1.02 30.53 -47.88 45.44 -1.88 45.28 -8.16 -16.07 -0.04 -73.15 8.62 -2.08 -8.35 -24.48 -7.46 -56.55 -64.9 22.8 -8.29 7.1 -31.69 45.08
